<svg xmlns="http://www.w3.org/2000/svg" xmlns:xlink="http://www.w3.org/1999/xlink" width="500" zoomAndPan="magnify" viewBox="0 0 375 74.249996" height="99" preserveAspectRatio="xMidYMid meet" version="1.0"><defs><g><g id="id1"/></g></defs><g fill="rgb(49.409485%, 85.099792%, 34.118652%)" fill-opacity="0.4196"><g transform="translate(119.719297, 56.557412)"><g><path d="M 34.6875 -19.546875 C 34.582031 -19.410156 34.53125 -19.238281 34.53125 -19.03125 C 34.53125 -18.820312 34.597656 -18.703125 34.734375 -18.671875 C 34.660156 -18.460938 34.539062 -18.085938 34.375 -17.546875 C 34.207031 -17.003906 34.019531 -16.425781 33.8125 -15.8125 C 33.707031 -14.582031 33.304688 -13.070312 32.609375 -11.28125 C 31.910156 -9.488281 31.253906 -8.066406 30.640625 -7.015625 C 30.472656 -7.015625 30.335938 -6.988281 30.234375 -6.9375 C 30.128906 -6.882812 30.144531 -6.835938 30.28125 -6.796875 C 30.28125 -6.628906 30.09375 -6.304688 29.71875 -5.828125 C 29.613281 -5.765625 29.398438 -5.519531 29.078125 -5.09375 C 28.753906 -4.664062 28.523438 -4.398438 28.390625 -4.296875 C 28.359375 -4.054688 28.253906 -3.859375 28.078125 -3.703125 C 27.910156 -3.554688 27.757812 -3.484375 27.625 -3.484375 C 27.625 -3.484375 27.597656 -3.472656 27.546875 -3.453125 C 27.492188 -3.429688 27.46875 -3.375 27.46875 -3.28125 C 26.851562 -2.382812 25.632812 -1.160156 23.8125 0.390625 C 21.988281 1.941406 20.445312 2.972656 19.1875 3.484375 C 18.84375 3.722656 18.441406 3.941406 17.984375 4.140625 C 17.523438 4.347656 17.207031 4.484375 17.03125 4.546875 C 16.789062 4.753906 15.515625 4.960938 13.203125 5.171875 C 12.859375 5.203125 12.476562 5.234375 12.0625 5.265625 C 11.65625 5.296875 11.25 5.347656 10.84375 5.421875 C 10.632812 5.453125 10.296875 5.46875 9.828125 5.46875 C 8.734375 5.46875 7.300781 5.25 5.53125 4.8125 C 5.082031 4.675781 4.753906 4.519531 4.546875 4.34375 C 4.347656 4.175781 4.117188 3.929688 3.859375 3.609375 C 3.609375 3.285156 3.414062 3.035156 3.28125 2.859375 C 2.832031 2.210938 2.609375 1.484375 2.609375 0.671875 C 2.609375 0.0859375 2.734375 -0.394531 2.984375 -0.78125 C 3.242188 -1.175781 3.644531 -1.425781 4.1875 -1.53125 L 4.34375 -1.53125 C 4.476562 -1.53125 4.753906 -1.460938 5.171875 -1.328125 C 5.171875 -2.316406 5.289062 -3.222656 5.53125 -4.046875 C 5.832031 -5.441406 6.785156 -8.441406 8.390625 -13.046875 L 9 -14.78125 C 9.238281 -15.363281 9.582031 -16.457031 10.03125 -18.0625 C 10.40625 -19.320312 10.820312 -20.613281 11.28125 -21.9375 C 11.738281 -23.269531 12.070312 -24.109375 12.28125 -24.453125 C 12.382812 -24.722656 12.484375 -25.097656 12.578125 -25.578125 C 13.097656 -27.316406 13.613281 -28.816406 14.125 -30.078125 L 14.484375 -31.765625 L 13.921875 -32.03125 C 13.609375 -31.925781 13.332031 -31.875 13.09375 -31.875 C 12.925781 -31.875 12.738281 -31.925781 12.53125 -32.03125 C 12.226562 -31.925781 11.8125 -32.09375 11.28125 -32.53125 C 10.75 -32.976562 10.453125 -33.375 10.390625 -33.71875 C 10.316406 -33.8125 10.269531 -33.960938 10.25 -34.171875 C 10.238281 -34.378906 10.234375 -34.515625 10.234375 -34.578125 C 10.265625 -34.816406 10.671875 -35.082031 11.453125 -35.375 C 12.242188 -35.664062 13.21875 -35.910156 14.375 -36.109375 C 15.53125 -36.316406 16.640625 -36.421875 17.703125 -36.421875 C 18.179688 -36.421875 18.539062 -36.40625 18.78125 -36.375 C 19.625 -36.300781 20.675781 -36.101562 21.9375 -35.78125 C 23.207031 -35.457031 24.351562 -35.109375 25.375 -34.734375 C 26.5 -34.328125 27.695312 -33.609375 28.96875 -32.578125 C 30.25 -31.554688 31.394531 -30.363281 32.40625 -29 C 33.414062 -27.632812 34.085938 -26.238281 34.421875 -24.8125 C 34.523438 -24.363281 34.628906 -23.75 34.734375 -22.96875 C 34.835938 -22.1875 34.890625 -21.488281 34.890625 -20.875 C 34.890625 -20.15625 34.820312 -19.710938 34.6875 -19.546875 Z M 29.515625 -16.53125 C 29.828125 -17.957031 29.984375 -19.285156 29.984375 -20.515625 C 29.984375 -24.023438 28.71875 -26.851562 26.1875 -29 C 25.476562 -29.613281 24.3125 -30.28125 22.6875 -31 C 21.070312 -31.71875 20.144531 -32.039062 19.90625 -31.96875 C 19.726562 -31.9375 19.289062 -30.984375 18.59375 -29.109375 C 17.894531 -27.234375 17.15625 -25.148438 16.375 -22.859375 L 14.0625 -16.421875 C 13.925781 -15.878906 13.773438 -15.367188 13.609375 -14.890625 C 13.441406 -14.410156 13.304688 -13.984375 13.203125 -13.609375 C 12.753906 -12.347656 12.53125 -11.628906 12.53125 -11.453125 C 11.539062 -9.921875 10.804688 -7.332031 10.328125 -3.6875 C 10.265625 -3.476562 10.078125 -2.691406 9.765625 -1.328125 C 9.523438 -0.203125 9.359375 0.34375 9.265625 0.3125 L 9.203125 0.765625 C 9.816406 1.035156 10.414062 1.140625 11 1.078125 C 11.207031 1.035156 11.488281 1 11.84375 0.96875 C 12.195312 0.9375 12.460938 0.921875 12.640625 0.921875 C 13.660156 0.847656 14.414062 0.769531 14.90625 0.6875 C 15.40625 0.601562 15.828125 0.425781 16.171875 0.15625 C 17.671875 -0.863281 18.890625 -1.738281 19.828125 -2.46875 C 20.765625 -3.207031 21.332031 -3.679688 21.53125 -3.890625 C 21.601562 -4.054688 21.960938 -4.257812 22.609375 -4.5 L 24.046875 -5.984375 C 24.898438 -6.898438 25.445312 -7.445312 25.6875 -7.625 C 25.71875 -7.863281 25.773438 -8.109375 25.859375 -8.359375 C 25.941406 -8.617188 25.984375 -8.816406 25.984375 -8.953125 C 26.390625 -9.398438 27.003906 -10.46875 27.828125 -12.15625 C 28.648438 -13.84375 29.210938 -15.300781 29.515625 -16.53125 Z M 29.515625 -16.53125 "/></g></g></g><g fill="rgb(49.409485%, 85.099792%, 34.118652%)" fill-opacity="0.4196"><g transform="translate(149.745078, 56.557412)"><g><path d="M 11.40625 0 C 9.457031 0 7.882812 -0.546875 6.6875 -1.640625 C 5.5 -2.734375 4.90625 -4.285156 4.90625 -6.296875 C 4.90625 -7.078125 4.957031 -7.945312 5.0625 -8.90625 C 5.132812 -9.71875 5.46875 -10.835938 6.0625 -12.265625 C 6.65625 -13.703125 7.472656 -15.101562 8.515625 -16.46875 C 9.554688 -17.832031 10.773438 -18.835938 12.171875 -19.484375 C 12.816406 -19.796875 13.363281 -20.007812 13.8125 -20.125 C 14.257812 -20.25 14.769531 -20.3125 15.34375 -20.3125 C 16.738281 -20.3125 17.867188 -20.054688 18.734375 -19.546875 C 19.609375 -19.035156 20.222656 -18.453125 20.578125 -17.796875 C 20.941406 -17.148438 21.125 -16.585938 21.125 -16.109375 L 21.125 -15.703125 C 21.125 -15.296875 20.882812 -14.546875 20.40625 -13.453125 C 19.925781 -12.359375 19.164062 -11.332031 18.125 -10.375 C 17.09375 -9.425781 15.757812 -8.898438 14.125 -8.796875 C 13.300781 -8.796875 12.503906 -8.875 11.734375 -9.03125 C 10.972656 -9.1875 10.488281 -9.265625 10.28125 -9.265625 C 9.769531 -9.265625 9.445312 -9.078125 9.3125 -8.703125 C 9.175781 -8.328125 9.109375 -7.691406 9.109375 -6.796875 C 9.210938 -5.847656 9.472656 -5.1875 9.890625 -4.8125 C 10.316406 -4.4375 10.941406 -4.25 11.765625 -4.25 C 12.171875 -4.25 12.648438 -4.367188 13.203125 -4.609375 C 13.742188 -4.878906 14.390625 -5.304688 15.140625 -5.890625 C 15.546875 -6.222656 15.867188 -6.457031 16.109375 -6.59375 C 16.347656 -6.726562 16.640625 -6.796875 16.984375 -6.796875 C 17.285156 -6.796875 17.640625 -6.59375 18.046875 -6.1875 C 18.460938 -5.78125 18.6875 -5.390625 18.71875 -5.015625 C 18.65625 -4.609375 18.28125 -3.992188 17.59375 -3.171875 C 16.914062 -2.347656 16.03125 -1.613281 14.9375 -0.96875 C 13.84375 -0.320312 12.664062 0 11.40625 0 Z M 13.203125 -12.328125 C 13.847656 -12.328125 14.289062 -12.394531 14.53125 -12.53125 C 14.875 -12.707031 15.394531 -13.144531 16.09375 -13.84375 C 16.789062 -14.539062 17.15625 -15.023438 17.1875 -15.296875 C 17.1875 -15.640625 17.039062 -15.921875 16.75 -16.140625 C 16.457031 -16.359375 16.054688 -16.503906 15.546875 -16.578125 L 14.984375 -16.578125 C 14.546875 -16.578125 13.90625 -16.207031 13.0625 -15.46875 C 12.226562 -14.738281 11.503906 -13.894531 10.890625 -12.9375 C 10.929688 -12.769531 11.1875 -12.625 11.65625 -12.5 C 12.132812 -12.382812 12.648438 -12.328125 13.203125 -12.328125 Z M 13.203125 -12.328125 "/></g></g></g><g fill="rgb(49.409485%, 85.099792%, 34.118652%)" fill-opacity="0.4196"><g transform="translate(166.82959, 56.557412)"><g><path d="M 7.265625 0.5625 C 7.160156 0.59375 7.023438 0.609375 6.859375 0.609375 C 6.140625 0.609375 5.539062 0.203125 5.0625 -0.609375 C 4.582031 -1.429688 4.34375 -2.472656 4.34375 -3.734375 C 4.34375 -4.410156 4.410156 -5.078125 4.546875 -5.734375 C 4.921875 -6.722656 5.109375 -7.4375 5.109375 -7.875 C 5.210938 -8.519531 5.5625 -9.6875 6.15625 -11.375 C 6.757812 -13.070312 7.144531 -14.085938 7.3125 -14.421875 C 7.445312 -14.421875 7.566406 -14.53125 7.671875 -14.75 C 7.773438 -14.976562 7.828125 -15.226562 7.828125 -15.5 C 7.828125 -15.800781 7.882812 -16.113281 8 -16.4375 C 8.125 -16.769531 8.253906 -17.003906 8.390625 -17.140625 C 8.390625 -17.242188 8.429688 -17.429688 8.515625 -17.703125 C 8.597656 -17.972656 8.640625 -18.160156 8.640625 -18.265625 C 8.640625 -18.328125 8.679688 -18.453125 8.765625 -18.640625 C 8.859375 -18.828125 8.90625 -18.972656 8.90625 -19.078125 C 9.445312 -20.140625 10.398438 -22.519531 11.765625 -26.21875 C 13.128906 -29.914062 13.8125 -31.96875 13.8125 -32.375 C 13.8125 -32.65625 13.910156 -32.910156 14.109375 -33.140625 C 14.316406 -33.378906 14.554688 -33.5 14.828125 -33.5 C 14.929688 -33.601562 15.15625 -33.679688 15.5 -33.734375 C 15.84375 -33.785156 16.113281 -33.8125 16.3125 -33.8125 L 17.140625 -33 C 17.515625 -32.65625 17.800781 -32.347656 18 -32.078125 C 18.207031 -31.804688 18.3125 -31.484375 18.3125 -31.109375 C 18.3125 -30.492188 18.203125 -29.882812 17.984375 -29.28125 C 17.765625 -28.6875 17.125 -27.28125 16.0625 -25.0625 C 15.988281 -24.894531 15.71875 -24.28125 15.25 -23.21875 C 14.90625 -22.539062 14.734375 -22.148438 14.734375 -22.046875 C 14.734375 -21.941406 14.664062 -21.726562 14.53125 -21.40625 C 14.394531 -21.082031 14.273438 -20.75 14.171875 -20.40625 C 13.898438 -19.863281 13.460938 -18.898438 12.859375 -17.515625 C 12.265625 -16.140625 11.96875 -15.382812 11.96875 -15.25 C 11.96875 -14.875 11.882812 -14.597656 11.71875 -14.421875 C 11.613281 -14.421875 11.539062 -14.34375 11.5 -14.1875 C 11.46875 -14.039062 11.453125 -13.929688 11.453125 -13.859375 C 11.453125 -13.523438 11.179688 -12.625 10.640625 -11.15625 L 10.1875 -9.671875 C 9.53125 -7.453125 9.070312 -5.832031 8.8125 -4.8125 C 8.5625 -3.789062 8.4375 -2.921875 8.4375 -2.203125 C 8.4375 -1.453125 8.316406 -0.835938 8.078125 -0.359375 C 7.835938 0.117188 7.566406 0.425781 7.265625 0.5625 Z M 7.265625 0.5625 "/></g></g></g><g fill="rgb(49.409485%, 85.099792%, 34.118652%)" fill-opacity="0.4196"><g transform="translate(175.934515, 56.557412)"><g><path d="M 10.796875 -21.390625 C 10.453125 -21.617188 10.175781 -21.921875 9.96875 -22.296875 C 9.769531 -22.671875 9.648438 -23.03125 9.609375 -23.375 C 9.578125 -23.71875 9.613281 -23.925781 9.71875 -24 C 9.925781 -24.226562 10.128906 -24.546875 10.328125 -24.953125 C 10.535156 -25.367188 10.691406 -25.660156 10.796875 -25.828125 C 11.066406 -26.441406 11.285156 -26.882812 11.453125 -27.15625 C 11.691406 -27.632812 11.914062 -27.894531 12.125 -27.9375 C 12.394531 -28.070312 12.617188 -28.140625 12.796875 -28.140625 C 13.234375 -28.140625 13.71875 -27.984375 14.25 -27.671875 C 14.78125 -27.367188 15.179688 -27.007812 15.453125 -26.59375 C 15.691406 -26.050781 15.8125 -25.578125 15.8125 -25.171875 C 15.8125 -24.347656 15.414062 -23.441406 14.625 -22.453125 C 14.289062 -22.015625 13.882812 -21.675781 13.40625 -21.4375 C 12.925781 -21.195312 12.445312 -21.078125 11.96875 -21.078125 C 11.488281 -21.078125 11.097656 -21.179688 10.796875 -21.390625 Z M 5.265625 -0.875 C 4.785156 -1.34375 4.546875 -2.191406 4.546875 -3.421875 C 4.546875 -4.078125 4.632812 -4.570312 4.8125 -4.90625 C 4.8125 -5.082031 4.84375 -5.289062 4.90625 -5.53125 C 4.976562 -5.769531 5.015625 -5.921875 5.015625 -5.984375 C 4.984375 -6.191406 5.117188 -6.753906 5.421875 -7.671875 C 5.828125 -8.585938 6.34375 -10 6.96875 -11.90625 C 7.601562 -13.820312 8.039062 -15.191406 8.28125 -16.015625 C 8.28125 -16.179688 8.347656 -16.320312 8.484375 -16.4375 C 8.628906 -16.5625 8.835938 -16.640625 9.109375 -16.671875 C 9.484375 -16.804688 9.957031 -16.644531 10.53125 -16.1875 C 11.113281 -15.726562 11.59375 -15.207031 11.96875 -14.625 C 12.175781 -14.425781 12.28125 -14.15625 12.28125 -13.8125 C 12.28125 -13.300781 12.054688 -12.582031 11.609375 -11.65625 C 11.441406 -11.28125 11.28125 -10.820312 11.125 -10.28125 C 10.96875 -9.738281 10.84375 -9.226562 10.75 -8.75 C 10.332031 -7.820312 10.003906 -6.96875 9.765625 -6.1875 C 9.671875 -5.75 9.601562 -5.410156 9.5625 -5.171875 C 9.320312 -3.910156 9.101562 -3.09375 8.90625 -2.71875 C 8.695312 -1.863281 8.40625 -1.222656 8.03125 -0.796875 C 7.65625 -0.367188 7.226562 -0.15625 6.75 -0.15625 C 6.175781 -0.15625 5.679688 -0.394531 5.265625 -0.875 Z M 5.265625 -0.875 "/></g></g></g><g fill="rgb(49.409485%, 85.099792%, 34.118652%)" fill-opacity="0.4196"><g transform="translate(185.960156, 56.557412)"><g><path d="M 21.53125 -15.1875 C 21.664062 -14.914062 21.734375 -14.578125 21.734375 -14.171875 C 21.734375 -13.390625 21.476562 -12.65625 20.96875 -11.96875 C 20.875 -11.800781 20.6875 -11.535156 20.40625 -11.171875 C 20.132812 -10.816406 19.894531 -10.453125 19.6875 -10.078125 C 19.488281 -9.703125 19.335938 -9.273438 19.234375 -8.796875 C 19.128906 -8.148438 18.929688 -7.375 18.640625 -6.46875 C 18.359375 -5.5625 18.164062 -4.957031 18.0625 -4.65625 C 17.789062 -3.9375 17.484375 -2.984375 17.140625 -1.796875 L 16.3125 1.375 C 15.5625 3.96875 14.691406 5.972656 13.703125 7.390625 C 12.710938 8.804688 11.796875 9.753906 10.953125 10.234375 C 10.503906 10.398438 10.078125 10.484375 9.671875 10.484375 C 8.921875 10.484375 8.144531 10.234375 7.34375 9.734375 C 6.539062 9.242188 5.847656 8.570312 5.265625 7.71875 C 4.890625 7.207031 4.410156 6.242188 3.828125 4.828125 C 3.253906 3.421875 3.070312 2.664062 3.28125 2.5625 C 3.414062 2.082031 3.90625 1.84375 4.75 1.84375 C 5.164062 1.84375 5.539062 1.898438 5.875 2.015625 C 6.21875 2.140625 6.410156 2.285156 6.453125 2.453125 C 6.753906 3.335938 7.128906 4.019531 7.578125 4.5 C 7.847656 4.945312 8.144531 5.289062 8.46875 5.53125 C 8.789062 5.769531 9.101562 5.890625 9.40625 5.890625 C 9.613281 5.890625 9.753906 5.851562 9.828125 5.78125 C 10.367188 5.375 10.785156 4.878906 11.078125 4.296875 C 11.367188 3.710938 11.769531 2.640625 12.28125 1.078125 C 13.0625 -1.648438 13.675781 -3.59375 14.125 -4.75 C 14.21875 -5.125 14.382812 -5.550781 14.625 -6.03125 L 13.703125 -5.3125 C 13.367188 -5.039062 12.992188 -4.757812 12.578125 -4.46875 C 12.171875 -4.1875 11.726562 -3.941406 11.25 -3.734375 C 11.007812 -3.429688 10.414062 -3.28125 9.46875 -3.28125 C 8.75 -3.28125 8.066406 -3.378906 7.421875 -3.578125 C 6.773438 -3.921875 6.285156 -4.3125 5.953125 -4.75 C 5.628906 -5.195312 5.300781 -5.863281 4.96875 -6.75 C 4.820312 -7.019531 4.75 -7.445312 4.75 -8.03125 C 4.75 -9.5 5.09375 -11.066406 5.78125 -12.734375 C 6.425781 -14.066406 7.445312 -15.484375 8.84375 -16.984375 C 10.25 -18.484375 11.460938 -19.382812 12.484375 -19.6875 C 13.296875 -20.101562 14.148438 -20.3125 15.046875 -20.3125 C 15.421875 -20.3125 15.691406 -20.273438 15.859375 -20.203125 C 16.398438 -20.140625 16.820312 -20.019531 17.125 -19.84375 C 17.4375 -19.675781 17.953125 -19.285156 18.671875 -18.671875 C 20.304688 -17.035156 21.257812 -15.875 21.53125 -15.1875 Z M 14.578125 -10.390625 C 15.191406 -11.234375 15.609375 -11.992188 15.828125 -12.671875 C 16.054688 -13.359375 16.132812 -14.113281 16.0625 -14.9375 C 16.03125 -15.789062 15.65625 -16.21875 14.9375 -16.21875 C 14.21875 -16.21875 13.59375 -16.007812 13.0625 -15.59375 C 12.539062 -15.1875 11.851562 -14.457031 11 -13.40625 C 10.488281 -12.71875 10.0625 -11.898438 9.71875 -10.953125 C 9.414062 -10.097656 9.265625 -9.363281 9.265625 -8.75 C 9.265625 -8 9.46875 -7.535156 9.875 -7.359375 C 10.96875 -7.398438 11.820312 -7.585938 12.4375 -7.921875 C 13.050781 -8.265625 13.765625 -9.085938 14.578125 -10.390625 Z M 14.578125 -10.390625 "/></g></g></g><g fill="rgb(49.409485%, 85.099792%, 34.118652%)" fill-opacity="0.4196"><g transform="translate(204.579212, 56.557412)"><g><path d="M 7.0625 -1.9375 C 6.445312 -2.039062 5.882812 -2.382812 5.375 -2.96875 C 4.863281 -3.550781 4.609375 -4.21875 4.609375 -4.96875 C 4.609375 -5.78125 5.117188 -7.875 6.140625 -11.25 C 6.304688 -12.132812 6.679688 -13.28125 7.265625 -14.6875 C 7.472656 -15.257812 7.59375 -15.597656 7.625 -15.703125 C 8.238281 -17.753906 9.070312 -20.257812 10.125 -23.21875 L 10.59375 -24.453125 C 11.78125 -27.691406 12.492188 -29.671875 12.734375 -30.390625 L 13.5625 -32.640625 C 13.5625 -32.910156 13.753906 -33.171875 14.140625 -33.421875 C 14.535156 -33.679688 14.867188 -33.8125 15.140625 -33.8125 C 15.679688 -33.8125 16.207031 -33.453125 16.71875 -32.734375 C 17.238281 -32.023438 17.515625 -31.273438 17.546875 -30.484375 C 17.546875 -30.078125 17.460938 -29.703125 17.296875 -29.359375 C 16.503906 -27.660156 15.53125 -25.019531 14.375 -21.4375 C 13.863281 -19.9375 13.351562 -18.507812 12.84375 -17.15625 C 12.332031 -15.8125 11.921875 -14.847656 11.609375 -14.265625 L 11.046875 -13.140625 L 10.328125 -10.4375 C 10.328125 -10.332031 10.3125 -10.242188 10.28125 -10.171875 C 10.25 -10.109375 10.234375 -10.0625 10.234375 -10.03125 C 10.234375 -9.925781 10.25 -9.875 10.28125 -9.875 L 11.15625 -10.75 C 12.144531 -11.726562 13.320312 -12.734375 14.6875 -13.765625 C 15.8125 -14.546875 16.390625 -14.988281 16.421875 -15.09375 C 16.453125 -15.195312 16.585938 -15.347656 16.828125 -15.546875 L 17.34375 -15.953125 C 18.4375 -16.742188 19.613281 -17.140625 20.875 -17.140625 C 21.25 -17.140625 21.691406 -16.953125 22.203125 -16.578125 C 22.710938 -16.203125 23.144531 -15.679688 23.5 -15.015625 C 23.863281 -14.347656 24.046875 -13.640625 24.046875 -12.890625 L 24.046875 -12.125 C 24.046875 -11.269531 23.882812 -10.148438 23.5625 -8.765625 C 23.238281 -7.390625 23.054688 -6.597656 23.015625 -6.390625 C 23.191406 -6.390625 23.445312 -6.425781 23.78125 -6.5 C 24.300781 -6.5 24.671875 -6.445312 24.890625 -6.34375 C 25.109375 -6.238281 25.300781 -6.097656 25.46875 -5.921875 C 25.644531 -5.753906 25.800781 -5.65625 25.9375 -5.625 C 26 -5.5625 26.03125 -5.457031 26.03125 -5.3125 C 26.03125 -4.53125 25.601562 -3.847656 24.75 -3.265625 C 23.90625 -2.691406 23.085938 -2.367188 22.296875 -2.296875 C 21.347656 -2.296875 20.582031 -2.65625 20 -3.375 C 19.414062 -4.09375 19.125 -4.960938 19.125 -5.984375 C 19.125 -6.390625 19.140625 -6.796875 19.171875 -7.203125 C 19.210938 -7.617188 19.25 -7.976562 19.28125 -8.28125 C 19.382812 -8.96875 19.4375 -9.515625 19.4375 -9.921875 C 19.4375 -10.367188 19.394531 -10.664062 19.3125 -10.8125 C 19.226562 -10.96875 19.082031 -11.046875 18.875 -11.046875 C 18.195312 -11.046875 17.015625 -10.421875 15.328125 -9.171875 C 13.640625 -7.929688 11.925781 -6.320312 10.1875 -4.34375 C 9.09375 -2.738281 8.050781 -1.9375 7.0625 -1.9375 Z M 7.0625 -1.9375 "/></g></g></g><g fill="rgb(49.409485%, 85.099792%, 34.118652%)" fill-opacity="0.4196"><g transform="translate(228.773748, 56.557412)"><g><path d="M 8.75 0.046875 C 8.195312 -0.0546875 7.582031 -0.488281 6.90625 -1.25 C 6.226562 -2.019531 5.800781 -2.675781 5.625 -3.21875 C 5.625 -3.289062 5.585938 -3.367188 5.515625 -3.453125 C 5.453125 -3.535156 5.40625 -3.59375 5.375 -3.625 C 5.238281 -3.726562 5.171875 -4.289062 5.171875 -5.3125 C 5.171875 -6.132812 5.210938 -6.988281 5.296875 -7.875 C 5.378906 -8.757812 5.488281 -9.476562 5.625 -10.03125 L 6.546875 -12.734375 L 7.265625 -14.78125 L 8.640625 -17.75 L 6.59375 -18.3125 C 6.351562 -18.34375 6.15625 -18.460938 6 -18.671875 C 5.851562 -18.878906 5.78125 -19.066406 5.78125 -19.234375 C 5.78125 -19.503906 5.925781 -19.894531 6.21875 -20.40625 C 6.507812 -20.914062 6.738281 -21.171875 6.90625 -21.171875 C 7.007812 -21.140625 7.28125 -21.125 7.71875 -21.125 C 8.75 -21.125 9.519531 -21.175781 10.03125 -21.28125 C 10.363281 -21.414062 10.601562 -21.6875 10.75 -22.09375 C 10.914062 -22.46875 11.082031 -22.78125 11.25 -23.03125 C 11.425781 -23.289062 11.597656 -23.578125 11.765625 -23.890625 C 11.867188 -24.097656 12.03125 -24.410156 12.25 -24.828125 C 12.46875 -25.253906 12.75 -25.742188 13.09375 -26.296875 C 13.164062 -26.398438 13.320312 -26.644531 13.5625 -27.03125 C 13.800781 -27.425781 14.085938 -27.757812 14.421875 -28.03125 C 14.628906 -28.207031 14.898438 -28.351562 15.234375 -28.46875 C 15.578125 -28.582031 15.921875 -28.640625 16.265625 -28.640625 C 16.878906 -28.640625 17.375 -28.472656 17.75 -28.140625 C 18.0625 -27.660156 18.21875 -27.300781 18.21875 -27.0625 C 18.21875 -26.789062 18.078125 -26.429688 17.796875 -25.984375 C 17.597656 -25.578125 17.257812 -25.03125 16.78125 -24.34375 C 16.375 -23.726562 16.066406 -23.234375 15.859375 -22.859375 C 15.515625 -22.421875 15.34375 -22.082031 15.34375 -21.84375 C 15.34375 -21.601562 15.566406 -21.484375 16.015625 -21.484375 C 16.492188 -21.484375 17.296875 -21.585938 18.421875 -21.796875 C 18.585938 -21.828125 18.820312 -21.84375 19.125 -21.84375 C 19.945312 -21.84375 20.53125 -21.601562 20.875 -21.125 C 21.21875 -20.644531 21.390625 -20.050781 21.390625 -19.34375 C 21.390625 -18.863281 21.222656 -18.570312 20.890625 -18.46875 C 20.566406 -18.363281 19.84375 -18.3125 18.71875 -18.3125 C 17.632812 -18.144531 16.507812 -18.0625 15.34375 -18.0625 C 15.144531 -18.0625 14.914062 -18.050781 14.65625 -18.03125 C 14.394531 -18.007812 14.128906 -17.96875 13.859375 -17.90625 C 13.585938 -17.832031 13.390625 -17.726562 13.265625 -17.59375 C 13.148438 -17.457031 13.023438 -17.238281 12.890625 -16.9375 C 12.785156 -16.832031 12.546875 -16.4375 12.171875 -15.75 C 11.691406 -14.757812 11.382812 -14.164062 11.25 -13.96875 C 10.363281 -11.375 9.679688 -8.695312 9.203125 -5.9375 C 9.171875 -5.726562 9.15625 -5.472656 9.15625 -5.171875 C 9.15625 -4.722656 9.300781 -4.40625 9.59375 -4.21875 C 9.882812 -4.03125 10.457031 -3.9375 11.3125 -3.9375 C 12.257812 -3.9375 13.160156 -4.054688 14.015625 -4.296875 C 15.035156 -4.742188 15.800781 -5.117188 16.3125 -5.421875 C 16.625 -5.585938 16.90625 -5.75 17.15625 -5.90625 C 17.414062 -6.0625 17.597656 -6.171875 17.703125 -6.234375 C 17.835938 -6.515625 18.066406 -6.484375 18.390625 -6.140625 C 18.710938 -5.796875 18.957031 -5.40625 19.125 -4.96875 C 19.125 -4.351562 19.003906 -3.796875 18.765625 -3.296875 C 18.535156 -2.804688 17.941406 -2.285156 16.984375 -1.734375 C 15.890625 -1.054688 14.765625 -0.5625 13.609375 -0.25 C 12.453125 0.0507812 11.359375 0.203125 10.328125 0.203125 C 9.753906 0.203125 9.226562 0.148438 8.75 0.046875 Z M 8.75 0.046875 "/></g></g></g><g fill="rgb(95.689392%, 96.469116%, 98.81897%)" fill-opacity="1"><g transform="translate(121.143412, 54.667547)"><g><path d="M 34.6875 -19.546875 C 34.582031 -19.410156 34.53125 -19.238281 34.53125 -19.03125 C 34.53125 -18.820312 34.597656 -18.703125 34.734375 -18.671875 C 34.660156 -18.460938 34.539062 -18.085938 34.375 -17.546875 C 34.207031 -17.003906 34.019531 -16.425781 33.8125 -15.8125 C 33.707031 -14.582031 33.304688 -13.070312 32.609375 -11.28125 C 31.910156 -9.488281 31.253906 -8.066406 30.640625 -7.015625 C 30.472656 -7.015625 30.335938 -6.988281 30.234375 -6.9375 C 30.128906 -6.882812 30.144531 -6.835938 30.28125 -6.796875 C 30.28125 -6.628906 30.09375 -6.304688 29.71875 -5.828125 C 29.613281 -5.765625 29.398438 -5.519531 29.078125 -5.09375 C 28.753906 -4.664062 28.523438 -4.398438 28.390625 -4.296875 C 28.359375 -4.054688 28.253906 -3.859375 28.078125 -3.703125 C 27.910156 -3.554688 27.757812 -3.484375 27.625 -3.484375 C 27.625 -3.484375 27.597656 -3.472656 27.546875 -3.453125 C 27.492188 -3.429688 27.46875 -3.375 27.46875 -3.28125 C 26.851562 -2.382812 25.632812 -1.160156 23.8125 0.390625 C 21.988281 1.941406 20.445312 2.972656 19.1875 3.484375 C 18.84375 3.722656 18.441406 3.941406 17.984375 4.140625 C 17.523438 4.347656 17.207031 4.484375 17.03125 4.546875 C 16.789062 4.753906 15.515625 4.960938 13.203125 5.171875 C 12.859375 5.203125 12.476562 5.234375 12.0625 5.265625 C 11.65625 5.296875 11.25 5.347656 10.84375 5.421875 C 10.632812 5.453125 10.296875 5.46875 9.828125 5.46875 C 8.734375 5.46875 7.300781 5.25 5.53125 4.8125 C 5.082031 4.675781 4.753906 4.519531 4.546875 4.34375 C 4.347656 4.175781 4.117188 3.929688 3.859375 3.609375 C 3.609375 3.285156 3.414062 3.035156 3.28125 2.859375 C 2.832031 2.210938 2.609375 1.484375 2.609375 0.671875 C 2.609375 0.0859375 2.734375 -0.394531 2.984375 -0.78125 C 3.242188 -1.175781 3.644531 -1.425781 4.1875 -1.53125 L 4.34375 -1.53125 C 4.476562 -1.53125 4.753906 -1.460938 5.171875 -1.328125 C 5.171875 -2.316406 5.289062 -3.222656 5.53125 -4.046875 C 5.832031 -5.441406 6.785156 -8.441406 8.390625 -13.046875 L 9 -14.78125 C 9.238281 -15.363281 9.582031 -16.457031 10.03125 -18.0625 C 10.40625 -19.320312 10.820312 -20.613281 11.28125 -21.9375 C 11.738281 -23.269531 12.070312 -24.109375 12.28125 -24.453125 C 12.382812 -24.722656 12.484375 -25.097656 12.578125 -25.578125 C 13.097656 -27.316406 13.613281 -28.816406 14.125 -30.078125 L 14.484375 -31.765625 L 13.921875 -32.03125 C 13.609375 -31.925781 13.332031 -31.875 13.09375 -31.875 C 12.925781 -31.875 12.738281 -31.925781 12.53125 -32.03125 C 12.226562 -31.925781 11.8125 -32.09375 11.28125 -32.53125 C 10.75 -32.976562 10.453125 -33.375 10.390625 -33.71875 C 10.316406 -33.8125 10.269531 -33.960938 10.25 -34.171875 C 10.238281 -34.378906 10.234375 -34.515625 10.234375 -34.578125 C 10.265625 -34.816406 10.671875 -35.082031 11.453125 -35.375 C 12.242188 -35.664062 13.21875 -35.910156 14.375 -36.109375 C 15.53125 -36.316406 16.640625 -36.421875 17.703125 -36.421875 C 18.179688 -36.421875 18.539062 -36.40625 18.78125 -36.375 C 19.625 -36.300781 20.675781 -36.101562 21.9375 -35.78125 C 23.207031 -35.457031 24.351562 -35.109375 25.375 -34.734375 C 26.5 -34.328125 27.695312 -33.609375 28.96875 -32.578125 C 30.25 -31.554688 31.394531 -30.363281 32.40625 -29 C 33.414062 -27.632812 34.085938 -26.238281 34.421875 -24.8125 C 34.523438 -24.363281 34.628906 -23.75 34.734375 -22.96875 C 34.835938 -22.1875 34.890625 -21.488281 34.890625 -20.875 C 34.890625 -20.15625 34.820312 -19.710938 34.6875 -19.546875 Z M 29.515625 -16.53125 C 29.828125 -17.957031 29.984375 -19.285156 29.984375 -20.515625 C 29.984375 -24.023438 28.71875 -26.851562 26.1875 -29 C 25.476562 -29.613281 24.3125 -30.28125 22.6875 -31 C 21.070312 -31.71875 20.144531 -32.039062 19.90625 -31.96875 C 19.726562 -31.9375 19.289062 -30.984375 18.59375 -29.109375 C 17.894531 -27.234375 17.15625 -25.148438 16.375 -22.859375 L 14.0625 -16.421875 C 13.925781 -15.878906 13.773438 -15.367188 13.609375 -14.890625 C 13.441406 -14.410156 13.304688 -13.984375 13.203125 -13.609375 C 12.753906 -12.347656 12.53125 -11.628906 12.53125 -11.453125 C 11.539062 -9.921875 10.804688 -7.332031 10.328125 -3.6875 C 10.265625 -3.476562 10.078125 -2.691406 9.765625 -1.328125 C 9.523438 -0.203125 9.359375 0.34375 9.265625 0.3125 L 9.203125 0.765625 C 9.816406 1.035156 10.414062 1.140625 11 1.078125 C 11.207031 1.035156 11.488281 1 11.84375 0.96875 C 12.195312 0.9375 12.460938 0.921875 12.640625 0.921875 C 13.660156 0.847656 14.414062 0.769531 14.90625 0.6875 C 15.40625 0.601562 15.828125 0.425781 16.171875 0.15625 C 17.671875 -0.863281 18.890625 -1.738281 19.828125 -2.46875 C 20.765625 -3.207031 21.332031 -3.679688 21.53125 -3.890625 C 21.601562 -4.054688 21.960938 -4.257812 22.609375 -4.5 L 24.046875 -5.984375 C 24.898438 -6.898438 25.445312 -7.445312 25.6875 -7.625 C 25.71875 -7.863281 25.773438 -8.109375 25.859375 -8.359375 C 25.941406 -8.617188 25.984375 -8.816406 25.984375 -8.953125 C 26.390625 -9.398438 27.003906 -10.46875 27.828125 -12.15625 C 28.648438 -13.84375 29.210938 -15.300781 29.515625 -16.53125 Z M 29.515625 -16.53125 "/></g></g></g><g fill="rgb(95.689392%, 96.469116%, 98.81897%)" fill-opacity="1"><g transform="translate(151.169193, 54.667547)"><g><path d="M 11.40625 0 C 9.457031 0 7.882812 -0.546875 6.6875 -1.640625 C 5.5 -2.734375 4.90625 -4.285156 4.90625 -6.296875 C 4.90625 -7.078125 4.957031 -7.945312 5.0625 -8.90625 C 5.132812 -9.71875 5.46875 -10.835938 6.0625 -12.265625 C 6.65625 -13.703125 7.472656 -15.101562 8.515625 -16.46875 C 9.554688 -17.832031 10.773438 -18.835938 12.171875 -19.484375 C 12.816406 -19.796875 13.363281 -20.007812 13.8125 -20.125 C 14.257812 -20.25 14.769531 -20.3125 15.34375 -20.3125 C 16.738281 -20.3125 17.867188 -20.054688 18.734375 -19.546875 C 19.609375 -19.035156 20.222656 -18.453125 20.578125 -17.796875 C 20.941406 -17.148438 21.125 -16.585938 21.125 -16.109375 L 21.125 -15.703125 C 21.125 -15.296875 20.882812 -14.546875 20.40625 -13.453125 C 19.925781 -12.359375 19.164062 -11.332031 18.125 -10.375 C 17.09375 -9.425781 15.757812 -8.898438 14.125 -8.796875 C 13.300781 -8.796875 12.503906 -8.875 11.734375 -9.03125 C 10.972656 -9.1875 10.488281 -9.265625 10.28125 -9.265625 C 9.769531 -9.265625 9.445312 -9.078125 9.3125 -8.703125 C 9.175781 -8.328125 9.109375 -7.691406 9.109375 -6.796875 C 9.210938 -5.847656 9.472656 -5.1875 9.890625 -4.8125 C 10.316406 -4.4375 10.941406 -4.25 11.765625 -4.25 C 12.171875 -4.25 12.648438 -4.367188 13.203125 -4.609375 C 13.742188 -4.878906 14.390625 -5.304688 15.140625 -5.890625 C 15.546875 -6.222656 15.867188 -6.457031 16.109375 -6.59375 C 16.347656 -6.726562 16.640625 -6.796875 16.984375 -6.796875 C 17.285156 -6.796875 17.640625 -6.59375 18.046875 -6.1875 C 18.460938 -5.78125 18.6875 -5.390625 18.71875 -5.015625 C 18.65625 -4.609375 18.28125 -3.992188 17.59375 -3.171875 C 16.914062 -2.347656 16.03125 -1.613281 14.9375 -0.96875 C 13.84375 -0.320312 12.664062 0 11.40625 0 Z M 13.203125 -12.328125 C 13.847656 -12.328125 14.289062 -12.394531 14.53125 -12.53125 C 14.875 -12.707031 15.394531 -13.144531 16.09375 -13.84375 C 16.789062 -14.539062 17.15625 -15.023438 17.1875 -15.296875 C 17.1875 -15.640625 17.039062 -15.921875 16.75 -16.140625 C 16.457031 -16.359375 16.054688 -16.503906 15.546875 -16.578125 L 14.984375 -16.578125 C 14.546875 -16.578125 13.90625 -16.207031 13.0625 -15.46875 C 12.226562 -14.738281 11.503906 -13.894531 10.890625 -12.9375 C 10.929688 -12.769531 11.1875 -12.625 11.65625 -12.5 C 12.132812 -12.382812 12.648438 -12.328125 13.203125 -12.328125 Z M 13.203125 -12.328125 "/></g></g></g><g fill="rgb(95.689392%, 96.469116%, 98.81897%)" fill-opacity="1"><g transform="translate(168.253704, 54.667547)"><g><path d="M 7.265625 0.5625 C 7.160156 0.59375 7.023438 0.609375 6.859375 0.609375 C 6.140625 0.609375 5.539062 0.203125 5.0625 -0.609375 C 4.582031 -1.429688 4.34375 -2.472656 4.34375 -3.734375 C 4.34375 -4.410156 4.410156 -5.078125 4.546875 -5.734375 C 4.921875 -6.722656 5.109375 -7.4375 5.109375 -7.875 C 5.210938 -8.519531 5.5625 -9.6875 6.15625 -11.375 C 6.757812 -13.070312 7.144531 -14.085938 7.3125 -14.421875 C 7.445312 -14.421875 7.566406 -14.53125 7.671875 -14.75 C 7.773438 -14.976562 7.828125 -15.226562 7.828125 -15.5 C 7.828125 -15.800781 7.882812 -16.113281 8 -16.4375 C 8.125 -16.769531 8.253906 -17.003906 8.390625 -17.140625 C 8.390625 -17.242188 8.429688 -17.429688 8.515625 -17.703125 C 8.597656 -17.972656 8.640625 -18.160156 8.640625 -18.265625 C 8.640625 -18.328125 8.679688 -18.453125 8.765625 -18.640625 C 8.859375 -18.828125 8.90625 -18.972656 8.90625 -19.078125 C 9.445312 -20.140625 10.398438 -22.519531 11.765625 -26.21875 C 13.128906 -29.914062 13.8125 -31.96875 13.8125 -32.375 C 13.8125 -32.65625 13.910156 -32.910156 14.109375 -33.140625 C 14.316406 -33.378906 14.554688 -33.5 14.828125 -33.5 C 14.929688 -33.601562 15.15625 -33.679688 15.5 -33.734375 C 15.84375 -33.785156 16.113281 -33.8125 16.3125 -33.8125 L 17.140625 -33 C 17.515625 -32.65625 17.800781 -32.347656 18 -32.078125 C 18.207031 -31.804688 18.3125 -31.484375 18.3125 -31.109375 C 18.3125 -30.492188 18.203125 -29.882812 17.984375 -29.28125 C 17.765625 -28.6875 17.125 -27.28125 16.0625 -25.0625 C 15.988281 -24.894531 15.71875 -24.28125 15.25 -23.21875 C 14.90625 -22.539062 14.734375 -22.148438 14.734375 -22.046875 C 14.734375 -21.941406 14.664062 -21.726562 14.53125 -21.40625 C 14.394531 -21.082031 14.273438 -20.75 14.171875 -20.40625 C 13.898438 -19.863281 13.460938 -18.898438 12.859375 -17.515625 C 12.265625 -16.140625 11.96875 -15.382812 11.96875 -15.25 C 11.96875 -14.875 11.882812 -14.597656 11.71875 -14.421875 C 11.613281 -14.421875 11.539062 -14.34375 11.5 -14.1875 C 11.46875 -14.039062 11.453125 -13.929688 11.453125 -13.859375 C 11.453125 -13.523438 11.179688 -12.625 10.640625 -11.15625 L 10.1875 -9.671875 C 9.53125 -7.453125 9.070312 -5.832031 8.8125 -4.8125 C 8.5625 -3.789062 8.4375 -2.921875 8.4375 -2.203125 C 8.4375 -1.453125 8.316406 -0.835938 8.078125 -0.359375 C 7.835938 0.117188 7.566406 0.425781 7.265625 0.5625 Z M 7.265625 0.5625 "/></g></g></g><g fill="rgb(95.689392%, 96.469116%, 98.81897%)" fill-opacity="1"><g transform="translate(177.35863, 54.667547)"><g><path d="M 10.796875 -21.390625 C 10.453125 -21.617188 10.175781 -21.921875 9.96875 -22.296875 C 9.769531 -22.671875 9.648438 -23.03125 9.609375 -23.375 C 9.578125 -23.71875 9.613281 -23.925781 9.71875 -24 C 9.925781 -24.226562 10.128906 -24.546875 10.328125 -24.953125 C 10.535156 -25.367188 10.691406 -25.660156 10.796875 -25.828125 C 11.066406 -26.441406 11.285156 -26.882812 11.453125 -27.15625 C 11.691406 -27.632812 11.914062 -27.894531 12.125 -27.9375 C 12.394531 -28.070312 12.617188 -28.140625 12.796875 -28.140625 C 13.234375 -28.140625 13.71875 -27.984375 14.25 -27.671875 C 14.78125 -27.367188 15.179688 -27.007812 15.453125 -26.59375 C 15.691406 -26.050781 15.8125 -25.578125 15.8125 -25.171875 C 15.8125 -24.347656 15.414062 -23.441406 14.625 -22.453125 C 14.289062 -22.015625 13.882812 -21.675781 13.40625 -21.4375 C 12.925781 -21.195312 12.445312 -21.078125 11.96875 -21.078125 C 11.488281 -21.078125 11.097656 -21.179688 10.796875 -21.390625 Z M 5.265625 -0.875 C 4.785156 -1.34375 4.546875 -2.191406 4.546875 -3.421875 C 4.546875 -4.078125 4.632812 -4.570312 4.8125 -4.90625 C 4.8125 -5.082031 4.84375 -5.289062 4.90625 -5.53125 C 4.976562 -5.769531 5.015625 -5.921875 5.015625 -5.984375 C 4.984375 -6.191406 5.117188 -6.753906 5.421875 -7.671875 C 5.828125 -8.585938 6.34375 -10 6.96875 -11.90625 C 7.601562 -13.820312 8.039062 -15.191406 8.28125 -16.015625 C 8.28125 -16.179688 8.347656 -16.320312 8.484375 -16.4375 C 8.628906 -16.5625 8.835938 -16.640625 9.109375 -16.671875 C 9.484375 -16.804688 9.957031 -16.644531 10.53125 -16.1875 C 11.113281 -15.726562 11.59375 -15.207031 11.96875 -14.625 C 12.175781 -14.425781 12.28125 -14.15625 12.28125 -13.8125 C 12.28125 -13.300781 12.054688 -12.582031 11.609375 -11.65625 C 11.441406 -11.28125 11.28125 -10.820312 11.125 -10.28125 C 10.96875 -9.738281 10.84375 -9.226562 10.75 -8.75 C 10.332031 -7.820312 10.003906 -6.96875 9.765625 -6.1875 C 9.671875 -5.75 9.601562 -5.410156 9.5625 -5.171875 C 9.320312 -3.910156 9.101562 -3.09375 8.90625 -2.71875 C 8.695312 -1.863281 8.40625 -1.222656 8.03125 -0.796875 C 7.65625 -0.367188 7.226562 -0.15625 6.75 -0.15625 C 6.175781 -0.15625 5.679688 -0.394531 5.265625 -0.875 Z M 5.265625 -0.875 "/></g></g></g><g fill="rgb(95.689392%, 96.469116%, 98.81897%)" fill-opacity="1"><g transform="translate(187.384271, 54.667547)"><g><path d="M 21.53125 -15.1875 C 21.664062 -14.914062 21.734375 -14.578125 21.734375 -14.171875 C 21.734375 -13.390625 21.476562 -12.65625 20.96875 -11.96875 C 20.875 -11.800781 20.6875 -11.535156 20.40625 -11.171875 C 20.132812 -10.816406 19.894531 -10.453125 19.6875 -10.078125 C 19.488281 -9.703125 19.335938 -9.273438 19.234375 -8.796875 C 19.128906 -8.148438 18.929688 -7.375 18.640625 -6.46875 C 18.359375 -5.5625 18.164062 -4.957031 18.0625 -4.65625 C 17.789062 -3.9375 17.484375 -2.984375 17.140625 -1.796875 L 16.3125 1.375 C 15.5625 3.96875 14.691406 5.972656 13.703125 7.390625 C 12.710938 8.804688 11.796875 9.753906 10.953125 10.234375 C 10.503906 10.398438 10.078125 10.484375 9.671875 10.484375 C 8.921875 10.484375 8.144531 10.234375 7.34375 9.734375 C 6.539062 9.242188 5.847656 8.570312 5.265625 7.71875 C 4.890625 7.207031 4.410156 6.242188 3.828125 4.828125 C 3.253906 3.421875 3.070312 2.664062 3.28125 2.5625 C 3.414062 2.082031 3.90625 1.84375 4.75 1.84375 C 5.164062 1.84375 5.539062 1.898438 5.875 2.015625 C 6.21875 2.140625 6.410156 2.285156 6.453125 2.453125 C 6.753906 3.335938 7.128906 4.019531 7.578125 4.5 C 7.847656 4.945312 8.144531 5.289062 8.46875 5.53125 C 8.789062 5.769531 9.101562 5.890625 9.40625 5.890625 C 9.613281 5.890625 9.753906 5.851562 9.828125 5.78125 C 10.367188 5.375 10.785156 4.878906 11.078125 4.296875 C 11.367188 3.710938 11.769531 2.640625 12.28125 1.078125 C 13.0625 -1.648438 13.675781 -3.59375 14.125 -4.75 C 14.21875 -5.125 14.382812 -5.550781 14.625 -6.03125 L 13.703125 -5.3125 C 13.367188 -5.039062 12.992188 -4.757812 12.578125 -4.46875 C 12.171875 -4.1875 11.726562 -3.941406 11.25 -3.734375 C 11.007812 -3.429688 10.414062 -3.28125 9.46875 -3.28125 C 8.75 -3.28125 8.066406 -3.378906 7.421875 -3.578125 C 6.773438 -3.921875 6.285156 -4.3125 5.953125 -4.75 C 5.628906 -5.195312 5.300781 -5.863281 4.96875 -6.75 C 4.820312 -7.019531 4.75 -7.445312 4.75 -8.03125 C 4.75 -9.5 5.09375 -11.066406 5.78125 -12.734375 C 6.425781 -14.066406 7.445312 -15.484375 8.84375 -16.984375 C 10.25 -18.484375 11.460938 -19.382812 12.484375 -19.6875 C 13.296875 -20.101562 14.148438 -20.3125 15.046875 -20.3125 C 15.421875 -20.3125 15.691406 -20.273438 15.859375 -20.203125 C 16.398438 -20.140625 16.820312 -20.019531 17.125 -19.84375 C 17.4375 -19.675781 17.953125 -19.285156 18.671875 -18.671875 C 20.304688 -17.035156 21.257812 -15.875 21.53125 -15.1875 Z M 14.578125 -10.390625 C 15.191406 -11.234375 15.609375 -11.992188 15.828125 -12.671875 C 16.054688 -13.359375 16.132812 -14.113281 16.0625 -14.9375 C 16.03125 -15.789062 15.65625 -16.21875 14.9375 -16.21875 C 14.21875 -16.21875 13.59375 -16.007812 13.0625 -15.59375 C 12.539062 -15.1875 11.851562 -14.457031 11 -13.40625 C 10.488281 -12.71875 10.0625 -11.898438 9.71875 -10.953125 C 9.414062 -10.097656 9.265625 -9.363281 9.265625 -8.75 C 9.265625 -8 9.46875 -7.535156 9.875 -7.359375 C 10.96875 -7.398438 11.820312 -7.585938 12.4375 -7.921875 C 13.050781 -8.265625 13.765625 -9.085938 14.578125 -10.390625 Z M 14.578125 -10.390625 "/></g></g></g><g fill="rgb(95.689392%, 96.469116%, 98.81897%)" fill-opacity="1"><g transform="translate(206.003327, 54.667547)"><g><path d="M 7.0625 -1.9375 C 6.445312 -2.039062 5.882812 -2.382812 5.375 -2.96875 C 4.863281 -3.550781 4.609375 -4.21875 4.609375 -4.96875 C 4.609375 -5.78125 5.117188 -7.875 6.140625 -11.25 C 6.304688 -12.132812 6.679688 -13.28125 7.265625 -14.6875 C 7.472656 -15.257812 7.59375 -15.597656 7.625 -15.703125 C 8.238281 -17.753906 9.070312 -20.257812 10.125 -23.21875 L 10.59375 -24.453125 C 11.78125 -27.691406 12.492188 -29.671875 12.734375 -30.390625 L 13.5625 -32.640625 C 13.5625 -32.910156 13.753906 -33.171875 14.140625 -33.421875 C 14.535156 -33.679688 14.867188 -33.8125 15.140625 -33.8125 C 15.679688 -33.8125 16.207031 -33.453125 16.71875 -32.734375 C 17.238281 -32.023438 17.515625 -31.273438 17.546875 -30.484375 C 17.546875 -30.078125 17.460938 -29.703125 17.296875 -29.359375 C 16.503906 -27.660156 15.53125 -25.019531 14.375 -21.4375 C 13.863281 -19.9375 13.351562 -18.507812 12.84375 -17.15625 C 12.332031 -15.8125 11.921875 -14.847656 11.609375 -14.265625 L 11.046875 -13.140625 L 10.328125 -10.4375 C 10.328125 -10.332031 10.3125 -10.242188 10.28125 -10.171875 C 10.25 -10.109375 10.234375 -10.0625 10.234375 -10.03125 C 10.234375 -9.925781 10.25 -9.875 10.28125 -9.875 L 11.15625 -10.75 C 12.144531 -11.726562 13.320312 -12.734375 14.6875 -13.765625 C 15.8125 -14.546875 16.390625 -14.988281 16.421875 -15.09375 C 16.453125 -15.195312 16.585938 -15.347656 16.828125 -15.546875 L 17.34375 -15.953125 C 18.4375 -16.742188 19.613281 -17.140625 20.875 -17.140625 C 21.25 -17.140625 21.691406 -16.953125 22.203125 -16.578125 C 22.710938 -16.203125 23.144531 -15.679688 23.5 -15.015625 C 23.863281 -14.347656 24.046875 -13.640625 24.046875 -12.890625 L 24.046875 -12.125 C 24.046875 -11.269531 23.882812 -10.148438 23.5625 -8.765625 C 23.238281 -7.390625 23.054688 -6.597656 23.015625 -6.390625 C 23.191406 -6.390625 23.445312 -6.425781 23.78125 -6.5 C 24.300781 -6.5 24.671875 -6.445312 24.890625 -6.34375 C 25.109375 -6.238281 25.300781 -6.097656 25.46875 -5.921875 C 25.644531 -5.753906 25.800781 -5.65625 25.9375 -5.625 C 26 -5.5625 26.03125 -5.457031 26.03125 -5.3125 C 26.03125 -4.53125 25.601562 -3.847656 24.75 -3.265625 C 23.90625 -2.691406 23.085938 -2.367188 22.296875 -2.296875 C 21.347656 -2.296875 20.582031 -2.65625 20 -3.375 C 19.414062 -4.09375 19.125 -4.960938 19.125 -5.984375 C 19.125 -6.390625 19.140625 -6.796875 19.171875 -7.203125 C 19.210938 -7.617188 19.25 -7.976562 19.28125 -8.28125 C 19.382812 -8.96875 19.4375 -9.515625 19.4375 -9.921875 C 19.4375 -10.367188 19.394531 -10.664062 19.3125 -10.8125 C 19.226562 -10.96875 19.082031 -11.046875 18.875 -11.046875 C 18.195312 -11.046875 17.015625 -10.421875 15.328125 -9.171875 C 13.640625 -7.929688 11.925781 -6.320312 10.1875 -4.34375 C 9.09375 -2.738281 8.050781 -1.9375 7.0625 -1.9375 Z M 7.0625 -1.9375 "/></g></g></g><g fill="rgb(95.689392%, 96.469116%, 98.81897%)" fill-opacity="1"><g transform="translate(230.197863, 54.667547)"><g><path d="M 8.75 0.046875 C 8.195312 -0.0546875 7.582031 -0.488281 6.90625 -1.25 C 6.226562 -2.019531 5.800781 -2.675781 5.625 -3.21875 C 5.625 -3.289062 5.585938 -3.367188 5.515625 -3.453125 C 5.453125 -3.535156 5.40625 -3.59375 5.375 -3.625 C 5.238281 -3.726562 5.171875 -4.289062 5.171875 -5.3125 C 5.171875 -6.132812 5.210938 -6.988281 5.296875 -7.875 C 5.378906 -8.757812 5.488281 -9.476562 5.625 -10.03125 L 6.546875 -12.734375 L 7.265625 -14.78125 L 8.640625 -17.75 L 6.59375 -18.3125 C 6.351562 -18.34375 6.15625 -18.460938 6 -18.671875 C 5.851562 -18.878906 5.78125 -19.066406 5.78125 -19.234375 C 5.78125 -19.503906 5.925781 -19.894531 6.21875 -20.40625 C 6.507812 -20.914062 6.738281 -21.171875 6.90625 -21.171875 C 7.007812 -21.140625 7.28125 -21.125 7.71875 -21.125 C 8.75 -21.125 9.519531 -21.175781 10.03125 -21.28125 C 10.363281 -21.414062 10.601562 -21.6875 10.75 -22.09375 C 10.914062 -22.46875 11.082031 -22.78125 11.25 -23.03125 C 11.425781 -23.289062 11.597656 -23.578125 11.765625 -23.890625 C 11.867188 -24.097656 12.03125 -24.410156 12.25 -24.828125 C 12.46875 -25.253906 12.75 -25.742188 13.09375 -26.296875 C 13.164062 -26.398438 13.320312 -26.644531 13.5625 -27.03125 C 13.800781 -27.425781 14.085938 -27.757812 14.421875 -28.03125 C 14.628906 -28.207031 14.898438 -28.351562 15.234375 -28.46875 C 15.578125 -28.582031 15.921875 -28.640625 16.265625 -28.640625 C 16.878906 -28.640625 17.375 -28.472656 17.75 -28.140625 C 18.0625 -27.660156 18.21875 -27.300781 18.21875 -27.0625 C 18.21875 -26.789062 18.078125 -26.429688 17.796875 -25.984375 C 17.597656 -25.578125 17.257812 -25.03125 16.78125 -24.34375 C 16.375 -23.726562 16.066406 -23.234375 15.859375 -22.859375 C 15.515625 -22.421875 15.34375 -22.082031 15.34375 -21.84375 C 15.34375 -21.601562 15.566406 -21.484375 16.015625 -21.484375 C 16.492188 -21.484375 17.296875 -21.585938 18.421875 -21.796875 C 18.585938 -21.828125 18.820312 -21.84375 19.125 -21.84375 C 19.945312 -21.84375 20.53125 -21.601562 20.875 -21.125 C 21.21875 -20.644531 21.390625 -20.050781 21.390625 -19.34375 C 21.390625 -18.863281 21.222656 -18.570312 20.890625 -18.46875 C 20.566406 -18.363281 19.84375 -18.3125 18.71875 -18.3125 C 17.632812 -18.144531 16.507812 -18.0625 15.34375 -18.0625 C 15.144531 -18.0625 14.914062 -18.050781 14.65625 -18.03125 C 14.394531 -18.007812 14.128906 -17.96875 13.859375 -17.90625 C 13.585938 -17.832031 13.390625 -17.726562 13.265625 -17.59375 C 13.148438 -17.457031 13.023438 -17.238281 12.890625 -16.9375 C 12.785156 -16.832031 12.546875 -16.4375 12.171875 -15.75 C 11.691406 -14.757812 11.382812 -14.164062 11.25 -13.96875 C 10.363281 -11.375 9.679688 -8.695312 9.203125 -5.9375 C 9.171875 -5.726562 9.15625 -5.472656 9.15625 -5.171875 C 9.15625 -4.722656 9.300781 -4.40625 9.59375 -4.21875 C 9.882812 -4.03125 10.457031 -3.9375 11.3125 -3.9375 C 12.257812 -3.9375 13.160156 -4.054688 14.015625 -4.296875 C 15.035156 -4.742188 15.800781 -5.117188 16.3125 -5.421875 C 16.625 -5.585938 16.90625 -5.75 17.15625 -5.90625 C 17.414062 -6.0625 17.597656 -6.171875 17.703125 -6.234375 C 17.835938 -6.515625 18.066406 -6.484375 18.390625 -6.140625 C 18.710938 -5.796875 18.957031 -5.40625 19.125 -4.96875 C 19.125 -4.351562 19.003906 -3.796875 18.765625 -3.296875 C 18.535156 -2.804688 17.941406 -2.285156 16.984375 -1.734375 C 15.890625 -1.054688 14.765625 -0.5625 13.609375 -0.25 C 12.453125 0.0507812 11.359375 0.203125 10.328125 0.203125 C 9.753906 0.203125 9.226562 0.148438 8.75 0.046875 Z M 8.75 0.046875 "/></g></g></g></svg>